<?xml version="1.0" encoding="utf-8"?>
<!-- Generator: Adobe Illustrator 19.0.0, SVG Export Plug-In . SVG Version: 6.00 Build 0)  -->
<svg version="1.1" id="Layer_1" xmlns="http://www.w3.org/2000/svg" xmlns:xlink="http://www.w3.org/1999/xlink" x="0px" y="0px"
	 viewBox="0 0 180.7 181.7" style="enable-background:new 0 0 180.7 181.7;" xml:space="preserve">
<style type="text/css">
	.st0{fill:url(#XMLID_185_);stroke:#F1A622;stroke-width:5;stroke-miterlimit:10;}
	.st1{fill:#9A2500;}
	.st2{display:none;}
	.st3{display:inline;fill:url(#XMLID_186_);stroke:#F1A622;stroke-width:5;stroke-miterlimit:10;}
	.st4{display:inline;}
	.st5{display:inline;fill:url(#XMLID_187_);stroke:#F1A622;stroke-width:5;stroke-miterlimit:10;}
	.st6{display:inline;fill:url(#XMLID_188_);stroke:#666666;stroke-width:5;stroke-miterlimit:10;}
	.st7{fill:#707070;}
</style>
<g id="XMLID_198_">
	<linearGradient id="XMLID_185_" gradientUnits="userSpaceOnUse" x1="90.5" y1="177.9335" x2="90.5" y2="4.0665">
		<stop  offset="0" style="stop-color:#F1C73A"/>
		<stop  offset="0.1633" style="stop-color:#F1DB6B"/>
		<stop  offset="0.5714" style="stop-color:#F1B814"/>
		<stop  offset="0.7908" style="stop-color:#F5CC4B"/>
		<stop  offset="0.8776" style="stop-color:#F0B000"/>
	</linearGradient>
	<circle id="XMLID_196_" class="st0" cx="90.5" cy="91" r="86.9"/>
	<g id="XMLID_197_">
		<path id="XMLID_111_" class="st1" d="M51.7,74.2l-8.7-8.7l17.6-17.6h10.5v67.5h11.3v11.7H47v-11.7h11.3V70.2l0.6-3.7l-0.4-0.2
			l-2.7,3.9L51.7,74.2z"/>
		<path id="XMLID_113_" class="st1" d="M107.1,91.2l14.1-20.8l11.8-6.1l5.6,10.8l-8.2,4.2L118.5,97l11.9,17.3l8.2,4.2l-5.6,10.8
			l-11.8-6.1l-14.1-20.3h-4.7v24.2H89.6V66.5h12.8v24.7H107.1z"/>
	</g>
</g>
<g id="XMLID_199_" class="st2">
	<linearGradient id="XMLID_186_" gradientUnits="userSpaceOnUse" x1="90.5" y1="177.9335" x2="90.5" y2="4.0665">
		<stop  offset="0" style="stop-color:#F1C73A"/>
		<stop  offset="0.1633" style="stop-color:#F1DB6B"/>
		<stop  offset="0.5714" style="stop-color:#F1B814"/>
		<stop  offset="0.7908" style="stop-color:#F5CC4B"/>
		<stop  offset="0.8776" style="stop-color:#F0B000"/>
	</linearGradient>
	<circle id="XMLID_209_" class="st3" cx="90.5" cy="91" r="86.9"/>
	<g id="XMLID_201_" class="st4">
		<path id="XMLID_107_" class="st1" d="M37,63.5l-3.5-11.2L48,47.9h28.7l12.8,12.9v20.7l-10,11.3L47.1,113v2.5h42.4v11.7H34.2v-20.3
			l36.6-22.8l5.8-6.5V65.4L71,59.6H49.5L37,63.5z"/>
		<path id="XMLID_109_" class="st1" d="M117.6,91.2l14.1-20.8l11.8-6.1l5.6,10.8l-8.1,4.2L129,97l11.9,17.3l8.1,4.2l-5.6,10.8
			l-11.8-6.1l-14.1-20.3h-4.7v24.2h-12.8V66.5h12.8v24.7H117.6z"/>
	</g>
</g>
<g id="XMLID_202_" class="st2">
	<linearGradient id="XMLID_187_" gradientUnits="userSpaceOnUse" x1="90.5" y1="177.9335" x2="90.5" y2="4.0665">
		<stop  offset="0" style="stop-color:#F1C73A"/>
		<stop  offset="0.1633" style="stop-color:#F1DB6B"/>
		<stop  offset="0.5714" style="stop-color:#F1B814"/>
		<stop  offset="0.7908" style="stop-color:#F5CC4B"/>
		<stop  offset="0.8776" style="stop-color:#F0B000"/>
	</linearGradient>
	<circle id="XMLID_216_" class="st5" cx="90.5" cy="91" r="86.9"/>
	<g id="XMLID_203_" class="st4">
		<path id="XMLID_83_" class="st1" d="M76.5,80.3l13,12.8v21.2l-13,12.8H46.1l-13.6-4.7l3.9-11.3l12.3,4.2H71l5.7-5.6V97.6L71,92
			H48.9V81.1l19.8-19l3.9-2.7L72.3,59l-3.7,0.6H34.3V47.9h55.1v10.5L69.4,77.7l-3.9,2.7l0.2,0.4l3.7-0.6H76.5z"/>
		<path id="XMLID_105_" class="st1" d="M116.5,91.2l14.1-20.8l11.8-6.1l5.6,10.8l-8.2,4.2L127.9,97l11.9,17.3l8.2,4.2l-5.6,10.8
			l-11.8-6.1l-14.1-20.3h-4.7v24.2H99V66.5h12.8v24.7H116.5z"/>
	</g>
</g>
<g id="XMLID_354_" class="st2">
	<linearGradient id="XMLID_188_" gradientUnits="userSpaceOnUse" x1="90.5" y1="177.9335" x2="90.5" y2="4.0665">
		<stop  offset="0" style="stop-color:#999999"/>
		<stop  offset="0.1378" style="stop-color:#CCCCCC"/>
		<stop  offset="0.5765" style="stop-color:#999999"/>
		<stop  offset="0.7908" style="stop-color:#CCCCCC"/>
		<stop  offset="1" style="stop-color:#B8B8B8"/>
	</linearGradient>
	<circle id="XMLID_382_" class="st6" cx="90.5" cy="91" r="86.9"/>
	<g id="XMLID_357_" class="st4">
		<path id="XMLID_81_" class="st7" d="M113.4,96.1l4.1,7.7v15.5l-12.8,12.8h-8.4v7.8H84.7v-7.8h-7.1l-14.1-4.7l3.8-11.3l12.3,4.2H99
			l5.7-5.7v-7.5l-1-1.7L67.1,87.3l-3.6-7.5V65.7l12.8-12.8h8.4v-7.8h11.6v7.8h7.6l13.6,4.6l-3.5,11.1l-12.3-3.9H82l-5.7,5.7v6
			l0.7,1.6L113.4,96.1z"/>
	</g>
</g>
</svg>
